<?xml version="1.0" encoding="UTF-8"?>
<svg id="Layer_2" data-name="Layer 2" xmlns="http://www.w3.org/2000/svg" viewBox="0 0 2557.46742 692.89956">
  <defs>
    <style>
      .cls-1 {
        fill: #fff;
      }

      .cls-2 {
        fill: #00fff0;
      }
    </style>
  </defs>
  <g id="Layer_1-2" data-name="Layer 1">
    <g>
      <path class="cls-1" d="M16.5639,439.87383c-3.70841-2.59387-5.56434-4.13298-7.44662-7.33015C3.03291,422.20899-.10251,411.13464.00256,398.92676l.10295-11.96163c.02566-2.98139.21788-5.13648.75863-8.05594.75599-4.08158.07553-8.23426,1.73656-12.25905l11.21735-3.48297,9.52943-2.59845,46.07782-17.75282c6.22807-2.39954,11.46811-6.19881,18.38233-7.33521.08963,7.13701-.23818,13.71039,1.14609,20.01965,3.54225,16.14495,21.46189,17.24855,37.69188,13.44396l8.91398-2.08959,10.24692-2.74814c20.58216-5.51997,60.0037-21.62658,80.59208-31.16784l17.29603-8.01549,9.34567-4.627,10.36094-5.5721,13.12741-7.86706c7.1725-4.29837,13.30836-10.06972,18.42874-16.71212,7.50126-9.731,11.15313-25.2391,3.51686-32.10669-5.51677-4.96144-23.63442-2.9883-34.28418-.98632l-11.6661,2.19304c-4.78227.89899-8.92677,1.58193-13.65299,2.56912l-8.43909,1.76272-9.41425,2.61992c-7.5641,2.10504-14.56529,4.72058-22.1229,6.7121l-9.61631,2.53401c-6.29888,1.65983-12.19895,3.70827-18.52742,5.40428l-14.41882,3.86421c-2.97612.79759-5.9073,2.02455-9.01326,2.79908l-10.12744,2.52546-11.91635,3.05432-15.07419,2.84262-14.52062,2.28938-19.98869,1.68414c-5.85734.49351-11.17227.12017-17.02243-.36824-10.88592-.90882-21.18982-3.34006-30.49668-9.15216l-5.48237-3.42372-4.52066-6.38826c-5.05491-7.14323-8.01258-19.82808-8.48282-29.13054l-.42129-8.33396c-.15059-2.97891,1.09338-6.0148.88389-9.1452-.29123-4.35184.80261-8.09518,1.505-12.19575,1.71978-10.04018,5.34654-19.02332,9.8927-28.04053,12.16135-24.12175,30.35852-40.48414,52.00737-55.83959,5.44195-3.85995,10.53092-7.35511,16.42608-10.55348,16.44743-8.92339,32.75822-17.14819,50.28663-23.71598l16.05826-6.01694c4.46762-1.67399,8.67284-3.24326,13.27182-4.72421l12.08361-3.89113c18.62067-5.99618,37.3766-10.16595,56.56079-14.33051l17.36517-3.76968c4.35046-.94441,8.53188-1.60379,12.86015-2.21169l15.84824-2.22586c18.71289-2.6282,37.2081-3.53994,56.11931-3.14338,9.36205.19632,17.91451,2.25608,26.66851,5.09056,7.96411,2.57872,15.11703,6.21643,20.62846,12.49001,10.94057,12.45348,10.63564,25.46129,8.74242,40.92192l-1.31889,10.77048c-.63577,5.19192-5.68505,4.8866-9.55123,5.90097l-50.83647,13.33791-23.47794,7.65109c-6.05703,1.97389-.84045-5.95225-2.40022-19.42033-.55407-4.78418-6.9554-11.0674-12.47417-11.34418-1.97191-.0989-3.99554-1.08699-5.90096-1.30986-9.32898-1.09117-18.4458.09868-27.67692,1.4079-4.95782.70315-9.60713.5692-14.54598,2.55223l-4.49867.27891-18.04275,4.37586-48.1976,13.76398-16.01552,5.91085c-2.77162,1.02292-5.1471,2.10388-7.80153,3.2102-15.76077,6.56883-32.15641,14.01483-44.40694,25.68483-9.31889,8.87728-14.58144,23.21784-8.16292,32.91374,5.78863,8.74438,30.23022,6.95006,43.44224,4.22242l30.69733-6.33752,14.7748-3.11461,11.21488-2.65376,12.98079-3.03467,13.03203-3.09088,15.2146-3.76807c3.92353-.97171,7.60446-1.72969,11.56321-2.55203l11.40943-2.37005c20.18524-4.19302,40.01511-6.96748,60.61154-8.38267,13.76416-.94574,27.1441.64268,40.2075,4.90699,8.94249,2.91912,16.45221,8.92705,20.56451,17.35002,5.25705,10.76768,4.25109,27.87606.84082,40.36245l-2.77195,10.14921c-2.89461,10.59832-19.66792,37.20053-27.79154,45.30408l-19.4719,19.42381c-16.0416,13.56556-32.3232,25.91839-50.33067,36.62077l-26.34925,15.66016-11.09789,5.95988-12.53896,6.41945-18.72699,9.313c-17.11438,8.51105-34.22369,15.87791-52.06483,22.86163l-19.48609,7.62762-8.9561,3.00796-12.77362,4.32733c-7.188,2.43508-13.98931,4.51951-21.46428,6.37403l-7.06573,1.75298c-3.53114.87607-6.5683,1.5955-10.10502,2.11832l-25.95689,3.83712c-12.20554,1.8043-27.45227-.75013-38.93194-6.22681l-5.2712-3.68698Z"/>
      <path class="cls-1" d="M1998.37463,677.14501c-.40097,2.92889-1.72351,4.61764-4.49537,4.83937l-14.33309,1.14657-26.57004,3.72406-22.6096.91185-14.68582.81005c-1.43374.07908-2.53102-.06958-4.54874-.76723l1.23109-5.59819,7.94146-39.99337,18.01087-106.98922,5.00992-33.24482,3.18835-24.55816,21.12793-8.35803,19.28373-6.86855,66.71594-26.3325c6.419,4.56374,12.90484,7.78623,19.81706,11.23706l12.00888,5.99526,21.55555,11.48468,21.90446,11.15253,38.14071,20.80063,24.01648,14.01936,31.42999,20.51028c5.73721,3.74393,10.71482,7.72061,15.60078,12.46426l12.48597,12.12232c2.12079-1.66944,2.59346-3.68061,2.69221-6.08478l.68275-16.62256-.69296-7.9872,1.0785-8.05477,1.9113-19.99399,2.08125-18.93258,1.27822-13.53778.88469-11.13677,1.01899-10.84865.74014-12.40468,1.22342-7.81685,1.79077-17.32407,2.20825-29.59918,1.00428-13.0219c.82896-10.74861-1.24021-13.01754,4.13578-15.24135l54.44249-22.52039,22.74927-9.5151c1.09774-.86785,2.82683-.66441,3.01343.69429l-2.08859,14.3548-4.2243,39.90175-3.57949,33.9579-1.49057,13.1161-11.15976,117.59093-2.80584,29.3286-1.34416,18.75041-3.61287,40.13484c-.18589,2.06497-2.30427,3.15707-4.07797,3.62045l-19.23836,5.02606-67.25337,13.69697c-4.03374.82152-6.88841.29376-9.71513-2.97824l-5.01762-5.80802-5.09896-3.72241c-2.37831-1.73625-3.43437-3.01646-5.57732-4.70464l-5.09438-4.01327-5.06668-3.75671-7.45097-5.54836-5.88615-3.99606-7.53065-5.49958-9.58917-6.46226-7.61575-4.5001-8.43468-5.64341-11.73179-7.19045-29.2338-17.79788-4.45986-2.53093-18.00225-9.97078-10.57635-5.568-19.93199-9.99847-20.06144-11.91959-13.75064-8.42829c-.8521-1.544-2.71813-1.2968-2.87952.44761l-1.19627,12.93014-3.32161,27.3832-2.47391,20.79013-3.50678,23.45265-3.27332,22.76081-4.20191,32.94069-2.9151,21.29348Z"/>
      <g>
        <path class="cls-1" d="M2034.9644,217.3545c.49349,2.22466-1.11314,2.94395-2.32757,3.44407l-34.02056,14.01007-45.99863,19.18618c-2.35298.98143-2.35218-3.68467-2.51312-5.04889l-3.65808-31.0078-1.05475-9.37854-.69289-7.39649-4.31416-31.33683-3.36597-22.90961-1.06404-7.96251-.86713-6.0159-2.426-17.74469-2.96296-19.88626-3.24929-22.57731-5.29094-30.94337-1.38292-9.71449-1.62747-11.62517,35.36117-4.78391,58.02943-5.72281,7.58774,4.58126,27.35154,13.53972,19.3899,8.67661,31.45723,12.62985,39.74018,13.3011,43.03838,11.8398,15.60519,4.347,28.36616,6.72086,18.61999,4.27581c1.12842-.58366.7443-2.33749-.90305-1.97889l-5.18327-9.89218-4.28642-5.59663-7.39636-15.53439-6.20467-10.93932-5.56716-11.3979-6.8337-13.1925-5.9211-10.02347c-1.13626-1.92351-1.90155-4.01695-3.66107-5.73942-.86625-.35068-1.16988-1.19734-.18045-1.64065l44.14991,1.24717,23.96737,1.56589c1.38812.09069,2.71815.90943,3.22703,2.03913,1.96378,4.35955,4.85287,7.66065,7.3706,11.58588l5.07496,7.91203,5.91221,9.1753,5.01731,6.89932,4.617,6.38448,9.02056,12.97435,6.65595,9.34071,6.95534,10.071,8.97479,11.97804,6.93063,10.03712-15.29905,5.25114-67.00663,23.88087c-3.13356,1.11679-6.54042-.10006-9.5812-.56714l-13.89782-2.13477-6.98574-1.08205-7.93072-1.14556-21.07305-3.83026-6.08925-.85489-17.98549-2.98491-24.69298-5.47067-10.56197-2.33002-41.86348-11.17342-33.85672-10.99438-11.8901-3.98341-22.85215-9.29968-12.44353-6.29735-5.07986-3.15157c-5.35971-3.32519-1.72745,5.32098-.26695,11.61413l3.5559,15.32207,3.86162,15.07451,4.70872,23.38206,4.07644,19.87054,6.48835,30.67931,7.19882,32.45262Z"/>
        <path class="cls-1" d="M949.40695,80.15468l-13.31129,2.85822-45.53705,10.35604-44.92903,10.50226-2.19574,13.07405-1.42969,13.22589-1.03425,11.41131-38.46917,13.93067-14.86678,5.37732-22.3601,7.62494-19.87826,6.67818,2.92173-11.98865,12.86773-64.93404,6.74623-38.34412,1.02527-6.0544,7.27992-42.90425c.57178-3.36977-.48807-6.88894,1.60107-9.75743l51.81315-.41327,24.0587-.79738,45.96028,1.23194,33.05675.45045,63.86632,3.86784,15.17888.55172,49.89863,6.59533,28.44827,3.82812,13.99732,2.99907,17.90753,4.94375c5.29764,1.46253,11.52419,2.56531,14.79763,7.49115-.45904,3.78502-4.84463,5.16004-7.67088,6.33953-8.08647,3.37474-15.78514,5.08257-24.24272,7.03286l-19.29549,4.44947-87.22887,19.75686-32.80571,7.15546-16.17038,3.46113ZM1002.23883,51.01483l17.55531-2.88654,24.72538-5.40442c3.90721-.85403,7.00124-3.44311,9.23489-6.79906,1.30094-1.95461.39349-5.16043-2.15893-6.01807-12.1745-4.09076-24.84597-6.43338-37.77923-6.48954l-15.26147-.06627-28.83623.04935-43.06393.74925-67.27573,3.58064-9.10885,47.19177,52.98257-8.55052,17.69819-3.22275,60.58422-8.33602,20.70381-3.79781Z"/>
      </g>
      <g>
        <path class="cls-2" d="M1762.09435,216.76666c-9.84547,6.67828-24.27132,7.86241-32.23778-.04356-10.27979-10.20173-3.57354-29.58504,10.09883-39.44024,9.3816-6.76236,20.9935-9.80951,32.04167-5.54369,8.34545,3.22227,11.88426,12.71157,9.56431,21.14241-2.35962,8.57501-7.25573,15.60203-14.47536,20.49917l-4.99168,3.3859Z"/>
        <g>
          <path class="cls-1" d="M1569.49475,388.89762l.76162,26.04527c.07106,2.42993-1.46328,3.40207-3.37891,4.19345l-84.08379,34.73646c-.95245.39347-2.11305.29992-2.55634.10883s-.90385-.95974-.90508-2.05459l-.07079-62.88792-.0213-52.30159-.15656-30.19323-.42087-52.56486-.59075-20.04211-1.01101-57.17664-.85551-49.82358c-.03507-2.04231.78009-3.27509,2.66857-3.84762l82.74841-25.087c1.16764-.354,1.98526,1.29485,1.98422,2.22459l-.0408,36.54455-.08448,24.70547.42541,19.47615.5123,28.88818.4961,17.11339.48874,28.99341.52438,19.00479.55009,29.54097.86664,39.4878,1.51987,25.95761.62984,18.95822Z"/>
          <path class="cls-1" d="M1468.96562,674.0049c-2.89709-.2973-5.69213-.88777-8.38057-1.71234l4.42406-14.39092,3.46222-11.4645,4.90754-21.91244,13.997-2.86095,60.18445-15.70376,14.82188-3.16868c.03479,5.07661-2.79543,8.61754-3.80675,13.01114l-11.58505,50.33061-3.05186,17.06227-49.14727-6.99351-15.82075-1.1702-10.0049-1.02671Z"/>
        </g>
      </g>
      <path class="cls-2" d="M1318.37524,380.22829c-6.64886,6.74687-20.24295,11.4102-28.77517,8.57291-6.53635-2.17358-11.15661-7.42882-12.39618-14.23768-3.44889-18.94459,11.76776-40.46914,30.65763-46.17895,6.14321-1.8569,12.59501-1.87959,18.12878,1.2361,14.67865,8.26454,9.61785,33.12066-1.86123,44.76897l-5.75383,5.83865Z"/>
      <path class="cls-2" d="M2516.13522,442.54418c-10.24241.20788-18.82323-6.65778-18.27586-16.60904l.48044-8.7345c.40802-7.41783,4.61712-13.87893,9.67324-18.95707l6.98059-7.01099c6.18151-6.20843,14.59616-9.69556,23.62714-10.01433,9.15018-.32297,16.66572,5.44368,18.39467,14.31058,3.8791,19.8939-17.84399,46.5478-40.88023,47.01534Z"/>
      <path class="cls-2" d="M608.44137,123.82638c-2.40267,16.46364-32.10821,32.99006-49.82209,29.96851-6.48444-1.10609-10.85325-6.22558-10.33899-12.89745,1.19409-15.49194,31.8643-36.03319,52.75146-28.21936,4.41597,1.652,8.11931,6.28539,7.40963,11.14831Z"/>
      <g>
        <path class="cls-1" d="M289.57739,687.89503l-8.4161-.92264-44.48248-7.51511-48.69472-9.193-59.24818-11.89962-7.05815-.86054c-3.71244-.45263-8.20229-.76931-11.12605-2.13819,3.45372-1.12923,7.14405-.89831,11.14562-.66825l25.02692,1.43886,24.9516.72797c5.21172,3.07393,10.82659,4.49604,16.80701,5.26133l26.47704,4.42715,66.69927,5.25795,48.00925.11895c10.21321.0253,28.11653-3.03898,29.78552-7.77305,1.65714-4.70045-5.47006-10.93457-12.5145-11.66423l-11.51782-1.19302c-25.36101-1.11721-50.21281-.20058-75.66734.65959l-14.10325.47659-63.53096-.10166-54.78628-.98944-23.67143-1.2053-6.06036-.33673-17.6445-.81162-10.36855-1.11421c-.50188-.05393-1.62236-.19441-1.84481-.45315-.31438-.36568-.12603-.93188-.83925-3.09243,1.52611.18766,2.86273-.72018,4.31597-1.76682,3.50175-2.522,7.90263-2.75653,11.8663-4.09797l29.23267-9.89336,54.24459-16.81653,76.21576-22.55253,20.08047-6.09595,11.65358-3.27857,8.81551-2.35611c27.56589-7.36749,62.41829-14.94324,89.97515-11.10002,8.28681,1.15572,15.19684,5.16351,21.53778,10.45137,5.69454,4.7488,7.69136,12.36408,10.08009,20.45509-2.61132,1.51492-5.92391,1.71566-9.06324,2.398l-31.58555,6.86514-31.59348,6.49684c-2.30892.4748-3.89407-.24053-4.85203-2.26986-3.6595-7.75221-12.84446-9.82661-22.19436-9.11523-19.41497,1.47718-37.88114,5.27488-56.85799,9.3345l-32.13254,6.87394-46.16443,10.75613-20.96469,5.1009c-2.63788.64182-4.92296,1.6113-6.54177,4.47,3.24206,1.77419,6.3081,2.01708,9.69757,1.96764l27.48789-.40093,16.7962-1.02978,11.82876-1.08441,44.72843-3.8232,46.14745-5.2956,17.70732-1.67842,22.35299-1.62118c20.94306-1.51893,54.0335-.82379,71.9931,6.58619,5.40277,2.22914,9.69305,5.38863,13.69966,9.41083,11.137,11.18033,12.93903,28.30721,2.21182,36.62581-3.5568,2.75818-6.77784,6.20277-11.1413,7.82304-9.84993,3.65756-20.12605,6.24513-30.74034,6.44737l-41.04414.78203-17.48084-1.004-9.41614-.80712-9.85631-1.1587-10.88345-.8433-7.48396-1.19141Z"/>
        <path class="cls-2" d="M602.56711,604.79405c-14.53768,9.76797-36.23092,10.1006-44.44548-5.12795-1.18286-7.34288,2.26599-13.35994,8.03425-18.31395,5.75863-4.94575,12.97416-7.13141,20.51402-8.30686,12.32272-1.92108,24.98434,3.80033,25.86978,12.89016.78153,8.02307-3.73115,14.66495-9.97256,18.8586Z"/>
      </g>
      <path class="cls-2" d="M1756.35527,631.03357c-11.06006,5.74347-22.68935,7.26602-34.70097,6.52849-4.36707-.26814-8.56248-1.65739-11.11405-5.33658-6.46888-9.32767,28.83506-25.4654,50.67264-20.75394,4.19933.90601,8.60437,5.21732,6.65721,9.77734-1.93163,4.52367-6.89555,7.3859-11.51483,9.78468Z"/>
      <path class="cls-1" d="M765.72612,668.50337l-.69332-18.0149c-.03944-1.02476-1.05382-2.43082-.8554-3.6657.72973-4.5415-.50052-8.66744-.79142-13.02807l-.75732-11.35212-1.15596-12.67678-1.03389-11.9542-1.01369-14.05569-.91099-14.99902-1.02492-16.02333-.92266-10.1992-1.15154-12.77247-.95735-11.27759-.98717-6.89384-1.14598-13.65483-2.70272-28.49057-1.20561-10.66282-.89532-9.24701-1.02494-11.00788-.9107-11.15338-1.51097-9.47794c-.56921-3.57051-1.06696-6.70969-.687-10.6616l223.2848-91.91408,26.72269-10.49256,17.48285-5.52102,8.65034-2.40046,9.61133-2.27862c22.39737-5.30988,48.25582-7.04093,67.80127,5.07882l7.36701,5.64646c9.93914,9.49131,16.01635,21.68728,18.58206,35.18781l1.61843,8.51607,1.54402,13.31438.02703,27.15911-.79016,7.41399c-3.7318,35.01496-16.15959,63.82848-40.05899,89.44522l-12.02626,12.13322c-14.92062,12.89682-30.90471,23.75362-48.79176,32.15618l-9.57754,4.49911-9.82558,4.11524-7.50202,3.40079-20.09851,6.64584-17.17567,5.18136-63.52019,18.13734-30.43952,7.80836-20.57705,5.39021,2.17366,26.05793,2.28935,21.68034,2.47924,23.26925-11.6967,3.04474-73.84718,13.54553c-1.12094-1.07962-1.28651-2.83137-1.36811-4.95163ZM909.49781,508.07741l59.41356-19.85378,17.57337-7.48795c10.61593-4.52341,20.25926-10.43468,29.27049-17.79956l10.90509-10.90655c10.15703-12.59054,14.31962-27.98338,13.77665-44.05211-.28676-8.48658-.68397-16.50442-5.01177-23.92925-6.26587-10.7498-19.89671-14.69185-30.97277-12.5554l-15.19515,2.93099-8.48766,2.4928-16.82636,5.29628-76.12559,28.78601-52.00215,19.99049,5.66179,97.28591,44.9546-13.68092,23.0659-6.51698Z"/>
      <ellipse class="cls-2" cx="2461.25888" cy="38.48822" rx="25.48877" ry="2.81577" transform="translate(78.7341 657.23881) rotate(-15.45421)"/>
    </g>
  </g>
</svg>