<?xml version="1.0" encoding="UTF-8"?>
<svg id="Layer_2" data-name="Layer 2" xmlns="http://www.w3.org/2000/svg" viewBox="0 0 2363.21976 325.39539">
  <defs>
    <style>
      .cls-1 {
        fill: #fff;
      }

      .cls-2 {
        fill: #15f1ff;
      }
    </style>
  </defs>
  <g id="Layer_1-2" data-name="Layer 1">
    <g>
      <circle class="cls-2" cx="2337.01603" cy="166.32953" r="26.20373"/>
      <g>
        <path class="cls-1" d="M1880.7795,263.73926l-77.92644-11.5444.04987-175.81018,95.0183-14.95363,65.01661,41.13919c34.13489,21.69085,65.37377,45.40745,96.34029,71.29427,15.86926,13.26609,28.62006,26.43923,42.93562,43.342l-2.88715-85.54134-2.8868-96.61249,76.04572-8.4273-1.95826,49.20191.11808,222.9717-82.4336-8.28724-18.80759-21.04981c-42.05972-41.29425-87.38172-77.78179-135.8146-111.6086l-55.70778-38.90779c-2.49384,6.87752.19318,11.97156.31595,18.00113l2.58176,126.79257Z"/>
        <path class="cls-1" d="M1451.11839,190.96437l-82.0136-14.77282c.90904-6.71076.83683-12.52831.01924-19.46645l81.98898-16.19441c-2.02528,16.31344-1.70581,31.6795.00539,50.43368Z"/>
        <circle class="cls-2" cx="1205.94328" cy="166.35819" r="26.19228"/>
        <circle class="cls-2" cx="1623.08792" cy="166.35507" r="26.18901"/>
        <g>
          <path class="cls-1" d="M305.70752,300.45048c-60.99772,26.19595-141.10083,29.65232-206.49814,20.05842-47.19097-6.923-93.37006-24.85359-98.52321-74.59032-1.29886-11.41589-.59852-22.38043.80779-33.80302,26.30339,2.05504,51.57465,2.5598,78.71116.13538-3.53793,24.10396,10.47004,41.86388,33.77253,46.78965,28.50552,6.02561,57.44976,5.57897,86.91437,4.06684,34.36603-1.76367,81.9081-6.31048,78.30457-38.25124-1.33355-11.82024-9.26684-19.4215-21.75706-23.03958-72.20187-20.91493-163.90609-3.98599-224.89384-45.94163-15.62795-10.75102-24.31811-26.00268-27.06532-44.64497C-.87572,68.09824,14.24755,34.98399,54.30498,17.38266,79.14958,6.46587,105.14048,1.86333,132.65955.63617c56.40101-2.5151,139.87926,1.31586,184.93101,31.95802,19.41222,13.20331,31.43009,33.77721,31.5873,57.27094l.15589,23.2975-76.75058-2.12012c3.59808-21.18225-6.42313-35.93738-24.46414-41.65186-39.80934-12.60959-106.60541-14.7792-146.22544-3.29896-10.50134,3.04285-18.50598,11.58324-19.6271,20.721-3.11275,25.37065,30.14266,33.40198,58.8719,36.90123l101.52451,12.36577c33.86881,4.12525,84.25697,16.8976,101.51151,43.53689,28.21449,43.56039,8.62466,100.61007-38.46689,120.8339Z"/>
          <circle class="cls-2" cx="522.08468" cy="166.35979" r="26.22385"/>
          <path class="cls-1" d="M1041.23821,154.04758c-3.66663,38.2364-124.99998,48.16931-169.02522,51.11305l-99.35624,6.64345,2.7547,50.2201-84.80426,11.51617-.1488-220.12447,232.72104,37.54608c32.04514,5.17001,86.72601,20.81591,108.91596,40.36732,6.90485,6.08382,9.78473,13.93864,8.94282,22.71829ZM963.0674,148.5752c.65314-12.77414-12.18092-19.24019-27.28626-23.7159-8.55567-2.53504-17.35156-4.17446-26.22499-5.11694l-137.76901-14.63285.12869,67.59794,139.32314-1.92793c20.77627-.2875,51.00383-6.07704,51.82842-22.20432Z"/>
        </g>
      </g>
    </g>
  </g>
</svg>